<?xml version="1.0" standalone="no"?><!DOCTYPE svg PUBLIC "-//W3C//DTD SVG 1.1//EN" "http://www.w3.org/Graphics/SVG/1.1/DTD/svg11.dtd"><svg t="1568737134829" class="icon" viewBox="0 0 1024 1024" version="1.1" xmlns="http://www.w3.org/2000/svg" p-id="4741" xmlns:xlink="http://www.w3.org/1999/xlink" width="200" height="200"><defs><style type="text/css"></style></defs><path d="M891.808 706.1l-137.43-79.346 129.427-40.44c10.902-3.407 16.979-15.006 13.572-25.909-3.405-10.902-15.008-16.984-25.908-13.572l-165.793 51.804-152.315-87.939 149.634-86.391 168.474 52.64c2.054 0.643 4.13 0.948 6.174 0.948 8.805-0.002 16.968-5.67 19.733-14.518 3.408-10.903-2.67-22.5-13.572-25.908l-132.11-41.279 139.08-80.297c9.892-5.711 13.281-18.359 7.57-28.25-5.71-9.889-18.359-13.282-28.251-7.57l-137.43 79.345 29.69-132.306c2.503-11.144-4.505-22.206-15.65-24.706-11.154-2.512-22.207 4.508-24.705 15.65l-38.034 169.48-151.26 87.33V302.406L661.473 183.8c8.4-7.74 8.937-20.822 1.2-29.223-7.74-8.398-20.823-8.939-29.224-1.2l-100.743 92.796V85.97c0-11.422-9.26-20.681-20.681-20.681-11.422 0-20.681 9.259-20.681 20.681v160.244l-100.793-92.84c-8.4-7.738-21.482-7.2-29.223 1.198-7.738 8.402-7.2 21.485 1.2 29.224L491.344 302.45v172.44l-150.711-87.01-38.033-169.48c-2.501-11.147-13.563-18.164-24.707-15.651-11.145 2.5-18.152 13.562-15.651 24.705l29.69 132.307-138.025-79.688c-9.89-5.711-22.541-2.323-28.25 7.57-5.711 9.891-2.322 22.538 7.57 28.25l139.673 80.64-132.107 41.278c-10.903 3.407-16.978 15.006-13.573 25.908 2.765 8.85 10.927 14.519 19.734 14.519 2.042 0 4.12-0.305 6.174-0.948l168.472-52.64 149.038 86.048-151.72 87.596-165.79-51.802c-10.9-3.406-22.5 2.67-25.908 13.572-3.406 10.902 2.67 22.5 13.573 25.908l129.425 40.44-138.025 79.69c-9.892 5.71-13.282 18.358-7.57 28.25 3.83 6.634 10.782 10.345 17.93 10.345 3.508 0 7.065-0.895 10.32-2.775l139.675-80.641-30.305 135.048c-2.501 11.145 4.505 22.205 15.651 24.705 1.525 0.344 3.047 0.507 4.548 0.507 9.462 0 18-6.538 20.16-16.157l38.648-172.222 150.096-86.657v175.513L362.528 840.67c-8.402 7.739-8.939 20.822-1.2 29.223 7.738 8.397 20.82 8.933 29.222 1.2l100.793-92.841v159.775c0 11.421 9.26 20.68 20.68 20.68 11.422 0 20.682-9.259 20.682-20.68V778.298l100.743 92.795a20.608 20.608 0 0 0 14.006 5.47c5.578 0 11.14-2.244 15.218-6.669 7.737-8.401 7.2-21.484-1.2-29.223L532.705 722.062v-175.53l150.644 86.974 38.649 172.22c2.159 9.622 10.695 16.158 20.16 16.158 1.498 0 3.024-0.164 4.546-0.507 11.144-2.5 18.153-13.562 15.65-24.705L732.05 661.624l139.08 80.298a20.591 20.591 0 0 0 10.32 2.775c7.147 0 14.1-3.71 17.93-10.345 5.71-9.893 2.322-22.54-7.57-28.252z" p-id="4742"></path></svg>