<?xml version="1.0" standalone="no"?><!DOCTYPE svg PUBLIC "-//W3C//DTD SVG 1.1//EN" "http://www.w3.org/Graphics/SVG/1.1/DTD/svg11.dtd"><svg t="1568737615675" class="icon" viewBox="0 0 1024 1024" version="1.1" xmlns="http://www.w3.org/2000/svg" p-id="5544" xmlns:xlink="http://www.w3.org/1999/xlink" width="200" height="200"><defs><style type="text/css"></style></defs><path d="M881.4 30.4c61.3 0 111.2 49.9 111.2 111.2v738.8c0 61.3-49.9 111.2-111.2 111.2H142.6c-61.3 0-111.2-49.9-111.2-111.2V141.6c0-61.3 49.9-111.2 111.2-111.2h738.8m0-19.4H142.6C70.4 11 12 69.5 12 141.6v738.8c0 72.1 58.5 130.6 130.6 130.6h738.8c72.1 0 130.6-58.5 130.6-130.6V141.6C1012 69.5 953.5 11 881.4 11z" fill="" p-id="5545"></path><path d="M796.2 222.2c48 0 87.1 39.1 87.1 87.1v209.3c0 48-39.1 87.1-87.1 87.1H227.7c-48 0-87.1-39.1-87.1-87.1V309.2c0-48 39.1-87.1 87.1-87.1h568.5m0-14.5H227.7c-56.1 0-101.6 45.5-101.6 101.6v209.3c0 56.1 45.5 101.6 101.6 101.6h568.6c56.1 0 101.6-45.5 101.6-101.6V309.2c0-56.1-45.5-101.6-101.7-101.6z" fill="" p-id="5546"></path><path d="M556.6 311.4L495 382.7c-2.1 2.5-0.4 6.3 2.9 6.3h103.6c8.4 0 12.3 10.4 6.1 16L473.2 524.8c-5.4 4.8-13.1-2.4-8.5-8.1l66.8-83.6c2.3-2.9 0.3-7.2-3.5-7.2H422.5c-8.7 0-12.5-10.9-5.8-16.4l131.7-106.6c5.6-4.6 13 3 8.2 8.5zM761.6 870H262.3c-1.5 0-2.8-1.2-2.8-2.8V795c0-1.5 1.2-2.8 2.8-2.8h499.4c1.5 0 2.8 1.2 2.8 2.8v72.2c-0.1 1.6-1.3 2.8-2.9 2.8z" fill="" p-id="5547"></path></svg>