<?xml version="1.0" encoding="utf-8"?>
<svg version="1.1" xmlns:xlink="http://www.w3.org/1999/xlink" width="9px" height="7px" xmlns="http://www.w3.org/2000/svg">
  <g transform="matrix(1 0 0 1 -1036 -354 )">
    <path d="M 1040.5 355  C 1042.46 355  1044 356.1  1044 357.5  C 1044 358.9  1042.46 360  1040.5 360  C 1038.54 360  1037 358.9  1037 357.5  C 1037 356.1  1038.54 355  1040.5 355  Z " fill-rule="nonzero" fill="#ffffff" stroke="none" />
    <path d="M 1040.5 355  C 1042.46 355  1044 356.1  1044 357.5  C 1044 358.9  1042.46 360  1040.5 360  C 1038.54 360  1037 358.9  1037 357.5  C 1037 356.1  1038.54 355  1040.5 355  Z " stroke-width="2" stroke="#2db7f5" fill="none" />
  </g>
</svg>