<?xml version="1.0" standalone="no"?><!DOCTYPE svg PUBLIC "-//W3C//DTD SVG 1.1//EN" "http://www.w3.org/Graphics/SVG/1.1/DTD/svg11.dtd"><svg t="1568738243908" class="icon" viewBox="0 0 1972 1024" version="1.1" xmlns="http://www.w3.org/2000/svg" p-id="9060" xmlns:xlink="http://www.w3.org/1999/xlink" width="385.15625" height="200"><defs><style type="text/css"></style></defs><path d="M123.524476 236.307692c14.321678 0 26.853147 12.531469 26.853146 26.853147 0 16.111888-12.531469 26.853147-26.853146 26.853147s-26.853147-12.531469-26.853147-26.853147 12.531469-26.853147 26.853147-26.853147z" fill="#C3F5E9" p-id="9061"></path><path d="M179.020979 884.363636c14.321678 0 26.853147 12.531469 26.853147 26.853147 0 16.111888-12.531469 26.853147-26.853147 26.853147s-26.853147-12.531469-26.853147-26.853147 12.531469-26.853147 26.853147-26.853147z" fill="#2FDEB2" p-id="9062"></path><path d="M41.174825 816.335664c23.272727 0 41.174825 17.902098 41.174825 41.174826s-17.902098 41.174825-41.174825 41.174825-41.174825-17.902098-41.174825-41.174825 17.902098-41.174825 41.174825-41.174826zM1783.048951 456.503497c19.692308 0 34.013986 16.111888 34.013986 34.013986 0 19.692308-16.111888 34.013986-34.013986 34.013986-19.692308 0-34.013986-16.111888-34.013986-34.013986s16.111888-34.013986 34.013986-34.013986z" fill="#D5F8F0" p-id="9063"></path><path d="M1865.398601 553.174825c10.741259 0 21.482517 8.951049 21.482518 21.482518 0 10.741259-8.951049 21.482517-21.482518 21.482517-10.741259 0-21.482517-8.951049-21.482517-21.482517 1.79021-12.531469 10.741259-21.482517 21.482517-21.482518z" fill="#2FDEB2" p-id="9064"></path><path d="M1817.062937 112.783217h137.846154c7.160839 0 14.321678 5.370629 14.321678 14.321678 0 7.160839-5.370629 14.321678-14.321678 14.321678h-137.846154c-7.160839 0-14.321678-5.370629-14.321678-14.321678 1.79021-8.951049 7.160839-14.321678 14.321678-14.321678z" fill="#D5F8F0" p-id="9065"></path><path d="M1886.881119 42.965035c7.160839 0 14.321678 5.370629 14.321678 14.321678v137.846154c0 7.160839-5.370629 14.321678-14.321678 14.321678-7.160839 0-14.321678-5.370629-14.321678-14.321678V57.286713c0-7.160839 7.160839-14.321678 14.321678-14.321678zM1666.685315 535.272727h-8.951049c-1.79021 0-3.58042 1.79021-7.160839 1.79021-35.804196 12.531469-64.447552 32.223776-87.72028 64.447553-7.160839 7.160839-10.741259 16.111888-12.531469 23.272727 7.160839-26.853147 7.160839-35.804196 8.951049-68.027972v-12.531469c0-3.58042 3.58042-7.160839 3.58042-10.741259l1.79021-3.580419c10.741259-1.79021 19.692308-5.370629 26.853146-10.741259 8.951049-7.160839 14.321678-14.321678 21.482518-23.272727 19.692308-32.223776 26.853147-69.818182 26.853147-107.412588 0-3.58042 0-7.160839-1.79021-10.741258v-5.37063c0-1.79021 0-1.79021-1.79021-1.790209H1629.090909s-1.79021 0-1.79021 1.790209c-17.902098 10.741259-32.223776 21.482517-42.965035 35.804196-19.692308 23.272727-32.223776 50.125874-34.013986 80.559441v-10.741259c-1.79021-12.531469-1.79021-25.062937-3.580419-39.384615 0-3.58042 0-7.160839-1.79021-8.951049-1.79021-5.370629-1.79021-10.741259 0-17.902098 0-1.79021 0-1.79021 1.79021-3.58042 0-3.58042 7.160839-8.951049 12.531468-14.321678 1.79021-1.79021 17.902098-12.531469 25.062937-34.013986 8.951049-21.482517 8.951049-44.755245 7.160839-62.657343 0-23.272727-3.58042-39.384615-8.951048-55.496503 0-1.79021-1.79021-3.58042-1.79021-5.37063l-1.79021-3.580419c0-1.79021-1.79021-1.79021-1.79021-1.79021s-1.79021 0-1.79021 1.79021l-7.160839 5.370629c-26.853147 28.643357-41.174825 62.657343-41.174825 100.251748 0 7.160839 0 12.531469 1.79021 19.692308-7.160839-19.692308-14.321678-39.384615-25.062937-59.076923v-14.321678c0-1.79021 0-1.79021 1.79021-3.58042s1.79021-3.58042 3.580419-5.370629c1.79021-3.58042 7.160839-5.370629 8.951049-8.951049 8.951049-10.741259 10.741259-23.272727 10.741259-39.384616 0-19.692308-3.58042-39.384615-10.741259-64.447552-3.58042-12.531469-10.741259-30.433566-21.482517-44.755245 0-1.79021-1.79021-1.79021-1.79021-3.580419V107.412587l-1.79021-1.790209c-1.79021 0-1.79021 0-1.79021 1.790209-14.321678 21.482517-21.482517 46.545455-23.272727 75.188812 0 21.482517 3.58042 41.174825 8.951049 57.286713-12.531469-19.692308-26.853147-39.384615-44.755245-59.076923 0-5.370629-1.79021-10.741259-1.79021-14.321679v-1.790209c1.79021-1.79021 1.79021-3.58042 3.58042-5.37063l7.160839-10.741258c3.58042-8.951049 3.58042-21.482517 1.79021-35.804196-7.160839-32.223776-23.272727-62.657343-51.916084-91.3007-3.58042-1.79021-7.160839-3.58042-10.741259-7.160839l-3.580419-3.580419c-1.79021-1.79021-3.58042-1.79021-3.58042 0V17.902098c-3.58042 19.692308-3.58042 41.174825 0 66.237762 1.79021 23.272727 10.741259 42.965035 23.272727 62.657343-19.692308-17.902098-37.594406-35.804196-62.657342-51.916084 1.79021-12.531469-1.79021-23.272727-10.741259-34.013986-10.741259-14.321678-26.853147-25.062937-46.545455-32.223776-12.531469-3.58042-23.272727-8.951049-35.804195-12.531469-7.160839-1.79021-12.531469-3.58042-17.902098-5.370629-7.160839-1.79021-8.951049-1.79021-10.741259-1.79021-1.79021 1.79021-1.79021 1.79021 0 5.370629 7.160839 21.482517 17.902098 37.594406 30.433566 50.125874 23.272727 23.272727 51.916084 35.804196 82.349651 37.594406h1.79021c3.58042 3.58042 8.951049 5.370629 10.741258 7.160839 8.951049 7.160839 19.692308 14.321678 26.853147 23.272727-12.531469-7.160839-30.433566-10.741259-48.335664-8.951048-10.741259 0-21.482517 1.79021-30.433567 3.580419l-8.951049 1.79021c-7.160839 0-12.531469 1.79021-19.692307 1.79021-1.79021 0-8.951049 1.79021-8.951049 3.580419v1.79021s0 1.79021 1.79021 1.79021c17.902098 17.902098 34.013986 28.643357 57.286713 35.804196 26.853147 7.160839 51.916084 7.160839 71.608391-1.79021 3.58042-1.79021 7.160839-1.79021 12.531469-1.79021h7.160839c1.79021 0 1.79021 0 3.58042 1.79021 14.321678 16.111888 26.853147 32.223776 37.594405 48.335664-10.741259-8.951049-23.272727-14.321678-42.965035-17.902098-17.902098-3.58042-32.223776-3.58042-48.335664-5.370629H1324.755245c-1.79021 0-3.58042 1.79021-3.58042 3.58042v1.790209s0 1.79021 1.79021 1.79021c17.902098 23.272727 35.804196 39.384615 59.076923 50.125874 23.272727 8.951049 44.755245 12.531469 64.447552 7.160839h8.951049c8.951049 0 14.321678 1.79021 17.902098 3.58042 10.741259 19.692308 21.482517 41.174825 30.433567 64.447552-8.951049-10.741259-23.272727-19.692308-37.594406-26.853146-17.902098-7.160839-34.013986-12.531469-51.916084-17.902098-7.160839-1.79021-14.321678-5.370629-21.482517-7.16084-1.79021 0-3.58042 0-3.58042 1.79021v1.79021c0 1.79021 23.272727 57.286713 59.076923 80.559441 14.321678 8.951049 32.223776 17.902098 53.706294 17.902098 7.160839 0 12.531469 1.79021 19.692308 5.370629l1.790209 1.79021c1.79021 0 1.79021 1.79021 1.79021 3.580419 7.160839 25.062937 12.531469 51.916084 14.321679 78.769231 0-3.58042-1.79021-5.370629-3.58042-8.951049-8.951049-16.111888-21.482517-30.433566-41.174825-44.755245L1462.601399 393.846154c-3.58042-3.58042-10.741259-7.160839-14.321679-8.951049l-3.580419-3.58042h-3.58042c-1.79021 0-1.79021 1.79021-1.79021 3.58042v14.321678c3.58042 30.433566 14.321678 55.496503 32.223777 78.769231 10.741259 12.531469 26.853147 30.433566 53.706293 37.594406 7.160839 1.79021 10.741259 5.370629 14.321679 10.741258 3.58042 5.370629 7.160839 8.951049 3.580419 14.321679 0 23.272727-1.79021 46.545455-7.160839 69.818181 0-7.160839-1.79021-12.531469-3.58042-19.692307-7.160839-14.321678-14.321678-26.853147-25.062937-41.174825-10.741259-12.531469-21.482517-23.272727-32.223776-35.804196l-10.741259-17.902098c0-1.79021-1.79021-1.79021-1.790209-1.79021h-1.79021l-1.79021 1.79021v1.79021c-7.160839 35.804196-1.79021 69.818182 12.531469 100.251748 8.951049 14.321678 19.692308 32.223776 37.594405 44.755245 8.951049 5.370629 14.321678 12.531469 19.692308 21.482517V662.377622c-8.951049 26.853147-19.692308 53.706294-32.223776 82.349651 3.58042-14.321678 1.79021-28.643357 0-41.174825-3.58042-21.482517-14.321678-41.174825-23.272728-57.286714l-5.370629-7.160839-10.741259-25.062937c0-1.79021-1.79021-1.79021-3.580419-1.79021s-1.79021 0-1.79021 1.79021l-1.79021 1.79021s0 1.79021-1.79021 1.79021c-17.902098 30.433566-21.482517 64.447552-17.902098 96.671328 3.58042 23.272727 10.741259 39.384615 21.482518 51.916084 7.160839 7.160839 10.741259 14.321678 12.531468 25.062937 0 1.79021 0 3.58042-1.790209 5.37063-10.741259 19.692308-26.853147 37.594406-44.755245 55.496503 12.531469-17.902098 12.531469-39.384615 10.741259-55.496503-1.79021-14.321678-1.79021-28.643357-3.58042-44.755245 0-5.370629-1.79021-10.741259-1.79021-17.902098l-1.79021-8.951049v-3.58042c0-1.79021 0-1.79021-1.790209-1.790209s-3.58042 0-8.951049 3.580419c-23.272727 23.272727-37.594406 48.335664-42.965035 78.769231-7.160839 28.643357-1.79021 53.706294 8.951049 78.769231v14.321678s0 1.79021-1.79021 1.79021c-23.272727 17.902098-48.335664 34.013986-76.979021 48.335664 12.531469-8.951049 21.482517-23.272727 26.853147-39.384615 7.160839-17.902098 10.741259-35.804196 12.531468-53.706294v-1.79021c1.79021-7.160839 1.79021-12.531469 3.58042-19.692307l1.79021-7.16084c0-1.79021 0-1.79021-1.79021-3.580419h-7.160839c-1.79021 0-1.79021 0-3.58042 1.79021-51.916084 21.482517-85.93007 73.398601-80.55944 121.734265 0 7.160839 0 14.321678-1.79021 21.482518 0 0 0 1.79021-1.79021 1.79021-25.062937 8.951049-46.545455 14.321678-69.818182 19.692307-1.79021 0-1.79021 1.79021-1.79021 1.79021v3.58042c1.79021 1.79021 3.58042 5.370629 7.16084 8.951049 0 1.79021 1.79021 1.79021 3.580419 1.79021 19.692308-3.58042 35.804196-8.951049 55.496504-14.321679h3.580419c3.58042 0 8.951049 1.79021 12.531469 1.79021h1.79021c10.741259 16.111888 26.853147 26.853147 53.706293 32.223776 7.160839 1.79021 10.741259 1.79021 17.902098 1.79021h35.804196c21.482517-1.79021 41.174825-5.370629 57.286713-12.531469 7.160839-1.79021 14.321678-5.370629 21.482518-12.531468 1.79021-1.79021 0-3.58042 0-3.58042-17.902098-12.531469-34.013986-21.482517-53.706294-28.643356-26.853147-8.951049-53.706294-12.531469-76.979021-7.160839-3.58042 0-7.160839 1.79021-10.741259 1.790209 23.272727-12.531469 44.755245-25.062937 66.237763-41.174825h1.790209c3.58042 0 8.951049-1.79021 12.531469-1.79021 12.531469 12.531469 26.853147 17.902098 48.335664 17.902098h1.79021c23.272727 0 44.755245-5.370629 68.027972-16.111888 17.902098-7.160839 32.223776-14.321678 46.545455-26.853147 1.79021-3.58042 7.160839-5.370629 8.951048-8.951049 0-1.79021 1.79021-1.79021 3.58042-3.580419v-1.79021s0-1.79021-1.79021-1.79021c-3.58042-1.79021-7.160839-3.58042-10.741258-3.580419-34.013986-10.741259-69.818182-12.531469-103.832168-3.58042-10.741259 3.58042-21.482517 7.160839-32.223777 14.321678 19.692308-17.902098 35.804196-39.384615 51.916084-59.076923V823.496503c1.79021 0 1.79021-1.79021 3.58042-1.790209 1.79021-1.79021 3.58042-1.79021 8.951049-3.58042 1.79021-1.79021 1.79021-1.79021 3.58042 0s7.160839 1.79021 8.951048 3.58042c17.902098 3.58042 35.804196 1.79021 55.496504-5.37063 17.902098-7.160839 32.223776-17.902098 44.755245-28.643356 17.902098-16.111888 30.433566-30.433566 35.804196-44.755245 1.79021-3.58042 1.79021-7.160839 3.580419-8.951049 0-1.79021 0-3.58042 1.79021-3.58042 0-1.79021 0-3.58042-1.79021-3.580419h-1.79021c-7.160839 0-71.608392 0-109.202797 32.223776-8.951049 7.160839-14.321678 14.321678-21.482517 21.482518 14.321678-26.853147 26.853147-55.496503 37.594405-85.93007v-1.79021l10.741259-10.741259h17.902098c14.321678-1.79021 26.853147-7.160839 37.594405-17.902098 26.853147-25.062937 46.545455-53.706294 59.076924-93.090909 1.79021-3.58042 1.79021-8.951049 1.790209-12.531468v-5.37063c5.370629-16.111888 5.370629-16.111888 5.37063-17.902098z m-957.762238 447.552448c-23.272727-5.370629-48.335664-10.741259-69.818182-19.692308l-1.79021-1.79021c-1.79021-5.370629-1.79021-12.531469-1.790209-19.692307 3.58042-48.335664-30.433566-100.251748-80.559441-121.734266-1.79021 0-1.79021-1.79021-3.58042-1.79021h-3.580419s-1.79021 1.79021-1.79021 3.58042l1.79021 7.160839c1.79021 7.160839 1.79021 12.531469 3.580419 19.692308v1.790209c3.58042 17.902098 7.160839 35.804196 12.531469 53.706294 7.160839 16.111888 14.321678 28.643357 26.853147 39.384615-26.853147-14.321678-53.706294-30.433566-76.979021-48.335664 0 0 0-1.79021-1.79021-1.79021v-14.321678c10.741259-21.482517 14.321678-46.545455 8.951049-78.769231-3.58042-28.643357-19.692308-53.706294-42.965035-78.769231-1.79021-3.58042-3.58042-3.58042-7.160839-3.580419h-1.79021l-3.58042 1.79021v3.580419c0 3.58042 0 7.160839-1.790209 8.951049 0 5.370629-1.79021 10.741259-1.79021 17.902098-1.79021 14.321678-3.58042 28.643357-3.58042 44.755245-1.79021 17.902098 0 37.594406 10.741259 55.496503-17.902098-17.902098-32.223776-37.594406-46.545455-57.286713-1.79021-1.79021-1.79021-3.58042-1.790209-5.370629 0-8.951049 7.160839-17.902098 12.531468-25.062937 10.741259-14.321678 17.902098-30.433566 21.482518-51.916084 7.160839-32.223776 0-64.447552-17.902098-96.671329 0 0 0-1.79021-1.79021-1.79021l-1.79021-1.79021c0-1.79021-1.79021-1.79021-3.580419-1.790209s-1.79021 0-1.79021 1.790209l-3.58042 25.062938-1.79021 5.370629c-8.951049 17.902098-17.902098 37.594406-23.272727 57.286713-3.58042 14.321678-3.58042 28.643357 0 41.174825-12.531469-25.062937-23.272727-51.916084-32.223776-82.34965v-3.58042c3.58042-8.951049 10.741259-16.111888 19.692308-21.482517 19.692308-12.531469 30.433566-28.643357 37.594405-44.755245 17.902098-30.433566 21.482517-64.447552 12.531469-100.251748v-1.79021s0-1.79021-1.79021-1.79021H429.65035s-1.79021 0-1.79021 1.79021c-3.58042 5.370629-8.951049 8.951049-12.531469 14.321678-10.741259 12.531469-21.482517 23.272727-32.223776 35.804196-12.531469 14.321678-21.482517 26.853147-25.062937 41.174825-1.79021 7.160839-3.58042 12.531469-3.58042 19.692308-3.58042-23.272727-7.160839-46.545455-7.160839-69.818182 0-5.370629 0-10.741259 3.58042-14.321678 3.58042-5.370629 8.951049-7.160839 14.321678-10.741259 25.062937-7.160839 41.174825-23.272727 53.706294-37.594405 19.692308-21.482517 30.433566-46.545455 32.223776-78.769231V375.944056c0-1.79021 0-1.79021-1.79021-3.58042h-3.580419l-5.37063 3.58042c-3.58042 3.58042-10.741259 7.160839-14.321678 8.951049L393.846154 406.377622c-21.482517 14.321678-34.013986 28.643357-41.174825 44.755245-1.79021 3.58042-1.79021 5.370629-3.58042 8.951049 3.58042-26.853147 8.951049-51.916084 14.321678-78.769231 0-3.58042 1.79021-3.58042 1.79021-3.580419 1.79021 0 1.79021-1.79021 1.79021-1.79021 3.58042-5.370629 12.531469-5.370629 19.692308-5.370629 21.482517 0 41.174825-8.951049 53.706293-17.902098 34.013986-21.482517 59.076923-78.769231 59.076923-80.559441s0-1.79021-1.790209-1.79021h-3.58042c-7.160839 1.79021-14.321678 5.370629-21.482517 7.160839-17.902098 5.370629-34.013986 12.531469-48.335665 17.902098-17.902098 7.160839-30.433566 16.111888-37.594405 26.853147 8.951049-21.482517 19.692308-41.174825 30.433566-64.447552 1.79021-1.79021 8.951049-3.58042 17.902098-3.58042h8.951049c21.482517 3.58042 42.965035 1.79021 64.447552-7.160839 23.272727-10.741259 42.965035-26.853147 59.076923-50.125874 0 0 0-1.79021 1.79021-1.79021 0-1.79021 0-3.58042-1.79021-3.580419H537.062937c-14.321678 0-32.223776 1.79021-48.335664 5.370629-19.692308 3.58042-32.223776 8.951049-42.965035 17.902098L483.356643 166.48951s1.79021-1.79021 3.58042-1.790209h7.160839c3.58042 0 8.951049 0 12.531469 1.790209 21.482517 8.951049 46.545455 8.951049 71.608391 1.79021 21.482517-7.160839 41.174825-17.902098 57.286714-35.804196 0 0 0-1.79021 1.790209-1.790209-1.79021-1.79021-7.160839-3.58042-8.951049-3.58042-7.160839 0-12.531469-1.79021-19.692307-1.79021l-8.951049-1.790209c-10.741259-1.79021-19.692308-1.79021-30.433567-3.58042-19.692308 0-35.804196 1.79021-48.335664 8.951049 8.951049-8.951049 19.692308-16.111888 26.853147-23.272727 1.79021-1.79021 7.160839-5.370629 10.741259-7.16084h1.790209c32.223776-1.79021 59.076923-12.531469 82.349651-37.594405 12.531469-12.531469 23.272727-28.643357 30.433566-50.125874 0-1.79021 1.79021-3.58042 0-5.37063s-3.58042 0-10.741259 1.79021c-7.160839 1.79021-12.531469 3.58042-17.902098 5.37063-12.531469 3.58042-23.272727 7.160839-35.804195 12.531468-19.692308 7.160839-35.804196 17.902098-46.545455 32.223776-7.160839 8.951049-10.741259 19.692308-8.951049 32.223777-21.482517 16.111888-42.965035 35.804196-62.657342 53.706293 12.531469-17.902098 23.272727-37.594406 26.853146-62.657342 3.58042-23.272727 3.58042-44.755245 0-66.237763V10.741259c0-1.79021-1.79021-1.79021-1.790209-1.79021h-3.58042l-3.58042 3.58042c-3.58042 1.79021-7.160839 5.370629-10.741258 7.160839-30.433566 26.853147-46.545455 57.286713-51.916084 91.300699-1.79021 14.321678-1.79021 26.853147 3.580419 37.594406l7.16084 10.741258c1.79021 1.79021 1.79021 3.58042 3.580419 3.58042v1.79021c0 3.58042-1.79021 8.951049-1.79021 14.321678-17.902098 17.902098-30.433566 37.594406-44.755244 59.076923 3.58042-14.321678 8.951049-34.013986 8.951048-57.286713 0-26.853147-8.951049-50.125874-23.272727-75.188811 0 3.58042 0 3.58042-1.79021 3.580419s-1.79021 0-1.790209 1.79021H393.846154c0 1.79021-1.79021 1.79021-1.79021 3.58042-12.531469 14.321678-19.692308 32.223776-23.272727 44.755244-7.160839 25.062937-10.741259 44.755245-10.741259 66.237763 0 16.111888 3.58042 28.643357 10.741259 39.384615 1.79021 3.58042 3.58042 5.370629 8.951049 8.951049 1.79021 1.79021 1.79021 3.58042 3.580419 5.370629 0 0 1.79021 1.79021 1.79021 3.58042v14.321678L358.041958 356.251748c0-7.160839 1.79021-14.321678 1.79021-19.692307 0-37.594406-12.531469-71.608392-41.174825-100.251749l-8.951049-7.160839c-1.79021 0-1.79021 0-1.79021 1.79021l-1.79021 1.79021c0 1.79021-1.79021 3.58042-1.79021 5.370629-7.160839 16.111888-10.741259 34.013986-10.741258 55.496504 0 16.111888 0 39.384615 7.160839 62.657342 8.951049 21.482517 21.482517 32.223776 25.062937 34.013986 7.160839 5.370629 12.531469 10.741259 12.531468 14.321679 0 1.79021 0 1.79021 1.79021 3.580419 1.79021 5.370629 0 10.741259 0 17.902098 0 3.58042-1.79021 5.370629-1.79021 8.951049-1.79021 14.321678-1.79021 26.853147-3.580419 39.384615v10.741259c-1.79021-28.643357-14.321678-55.496503-34.013986-80.55944-12.531469-14.321678-25.062937-26.853147-42.965035-35.804196l-1.79021-1.79021h-7.160839c-1.79021 0-1.79021 1.79021-1.79021 1.79021v5.370629c0 3.58042-1.79021 7.160839-1.79021 10.741259 0 37.594406 8.951049 75.188811 26.853147 107.412587 7.160839 8.951049 12.531469 16.111888 21.482518 23.272728s17.902098 10.741259 26.853146 10.741258l1.79021 3.58042c1.79021 3.58042 3.58042 7.160839 3.58042 10.741259v12.531468c0 28.643357 1.79021 39.384615 8.951049 68.027972 0-8.951049-3.58042-16.111888-10.741259-23.272727-23.272727-30.433566-51.916084-51.916084-87.72028-64.447553-1.79021 0-3.58042-1.79021-7.160839-1.790209h-8.951049l-1.79021 1.790209v5.37063c0 3.58042 0 8.951049 1.79021 12.531468 12.531469 37.594406 32.223776 69.818182 59.076923 93.090909 12.531469 10.741259 25.062937 16.111888 37.594406 17.902098h17.902098l10.741259 10.741259v7.160839c10.741259 28.643357 23.272727 57.286713 37.594405 85.93007l-21.482517-21.482517c-37.594406-30.433566-102.041958-32.223776-109.202798-32.223776-1.79021 0-1.79021 1.79021-1.790209 3.580419s0 3.58042 1.790209 5.370629c0 3.58042 1.79021 7.160839 3.58042 8.951049 7.160839 14.321678 19.692308 28.643357 35.804196 44.755245 12.531469 10.741259 25.062937 21.482517 44.755245 28.643357 17.902098 10.741259 35.804196 12.531469 53.706293 8.951049 1.79021 0 7.160839-1.79021 8.951049-3.58042 1.79021-1.79021 1.79021-1.79021 3.58042 0s3.58042 3.58042 8.951049 3.58042c1.79021 0 1.79021 1.79021 3.580419 1.79021v1.790209c14.321678 21.482517 32.223776 41.174825 51.916084 59.076923-10.741259-5.370629-21.482517-10.741259-32.223776-14.321678-34.013986-8.951049-69.818182-7.160839-103.832168 3.58042-3.58042 1.79021-8.951049 3.58042-10.741259 3.580419s-1.79021 1.79021 0 3.58042l3.58042 3.580419c1.79021 3.58042 3.58042 5.370629 8.951049 8.951049 12.531469 12.531469 30.433566 19.692308 46.545455 26.853147 21.482517 8.951049 44.755245 14.321678 66.237762 16.111888h1.79021c21.482517 0 35.804196-5.370629 48.335664-17.902098 3.58042 0 8.951049 0 12.531468 1.79021h1.79021c21.482517 14.321678 42.965035 28.643357 66.237762 41.174825-3.58042 0-7.160839-1.79021-10.741258-1.790209-25.062937-3.58042-48.335664-1.79021-76.979021 7.160839-19.692308 5.370629-35.804196 16.111888-53.706294 28.643356-1.79021 1.79021-1.79021 3.58042 0 3.58042 7.160839 7.160839 12.531469 10.741259 21.482518 12.531469 17.902098 7.160839 35.804196 10.741259 57.286713 12.531468h35.804196c7.160839 0 10.741259-1.79021 17.902097-1.79021 25.062937-5.370629 42.965035-16.111888 53.706294-32.223776h1.79021c3.58042-1.79021 8.951049-1.79021 12.531469-1.79021h3.580419c17.902098 5.370629 35.804196 10.741259 55.496504 14.321679 1.79021 0 1.79021 0 3.580419-1.79021 1.79021-3.58042 3.58042-5.370629 7.160839-8.951049v-3.58042c5.370629 5.370629 5.370629 3.58042 3.58042 3.58042z" fill="#D5F8F0" p-id="9066"></path><path d="M1165.426573 286.433566l26.853147 84.139861h-89.510489L1081.286713 286.433566h84.13986z m46.545455 456.503497h-150.377622v-304.335664h-8.951049l-69.818182 306.125874h-100.251748l71.608391-306.125874h-78.769231V393.846154h87.72028v-119.944056h96.671329V393.846154h150.377622v42.965035h-51.916084V698.181818h53.706294v44.755245zM895.104895 275.692308l-39.384615 173.650349H877.202797v293.594406h-96.671328V503.048951H751.888112l55.496503-227.356643H895.104895z" fill="#2FDEB2" p-id="9067"></path></svg>