<?xml version="1.0" standalone="no"?><!DOCTYPE svg PUBLIC "-//W3C//DTD SVG 1.1//EN" "http://www.w3.org/Graphics/SVG/1.1/DTD/svg11.dtd"><svg t="1568738693818" class="icon" viewBox="0 0 1024 1024" version="1.1" xmlns="http://www.w3.org/2000/svg" p-id="1138" xmlns:xlink="http://www.w3.org/1999/xlink" width="200" height="200"><defs><style type="text/css"></style></defs><path d="M1001.92 437.12c-32-55.552-91.008-88.32-157.376-88.32-48.64 0-99.584 1.152-129.344 1.728 9.728-59.712 23.488-153.28 23.488-206.528 0-47.424-16-86.656-46.4-111.808C667.712 11.136 634.496 0 598.4 0 526.336 0 469.632 67.328 469.632 152.768c0 59.072 0 63.744-21.12 93.632C378.56 345.28 322.56 389.76 305.28 389.76H103.872C46.72 389.76 0.32 436.48 0.32 494.464v424.256c0 57.92 46.336 104.704 103.552 104.704h136.832a37.312 37.312 0 0 0 36.608-37.44V464.064h27.52c65.792 0 146.496-94.784 203.136-174.4 34.944-49.152 34.944-73.152 34.944-136.96 0-21.632 6.272-41.472 17.152-56.704 10.304-14.08 24.064-21.632 38.4-21.632 30.272 0 66.368 12.288 66.368 69.632 0 71.36-29.76 236.352-30.336 238.08a35.84 35.84 0 0 0 8.576 31.04c6.848 8.192 16.64 12.864 27.52 12.864h3.968a5850.112 5850.112 0 0 1 169.408-2.88c40.64 0 75.52 19.264 94.464 51.456 14.848 25.792 15.424 55.04 2.24 78.4-2.816 5.312-6.272 10.56-9.728 17.024-17.728 29.248-31.424 52.608-28.608 104.704 0.64 11.712 2.304 23.424 3.456 34.56 4.544 33.92 8 61.44-12.032 86.016-35.456 43.264-40.64 70.784-44.032 87.168v1.152c0 0.64-0.64 1.792-0.64 1.792-14.272 28.672-44.032 62.016-105.856 62.016H419.84a36.928 36.928 0 0 0-36.608 37.44c0 20.48 16.64 37.44 36.608 37.44h336.576v-0.64c71.552-4.032 128.192-40.96 159.68-104.704 3.456-7.616 5.12-14.08 6.272-20.48 2.304-11.072 5.12-25.728 28.608-54.4 40.64-49.728 33.792-104.128 28.096-143.36v-1.728a500.864 500.864 0 0 1-2.88-27.52c-1.728-28.672 2.304-35.712 18.304-62.08l2.304-4.032c2.88-4.672 5.12-8.768 8-14.08 25.792-46.208 25.216-103.552-2.88-152.128zM73.6 493.312a30.912 30.912 0 0 1 30.336-30.4H204.16v485.056H103.872a30.4 30.4 0 0 1-30.336-30.464V493.312z" fill="#FF505A" p-id="1139"></path></svg>