<?xml version="1.0" standalone="no"?><!DOCTYPE svg PUBLIC "-//W3C//DTD SVG 1.1//EN" "http://www.w3.org/Graphics/SVG/1.1/DTD/svg11.dtd"><svg t="1568736009662" class="icon" viewBox="0 0 1024 1024" version="1.1" xmlns="http://www.w3.org/2000/svg" p-id="1279" xmlns:xlink="http://www.w3.org/1999/xlink" width="200" height="200"><defs><style type="text/css"></style></defs><path d="M528.6 836.8c-40.3 4.9-82.5-9.9-111.9-44.7L237.6 581c-76.2-89.8-76.2-235.5 0-325.3 41.9-49.5 98.2-71.7 153-66.7-44.8 4.1-88.5 26.3-122.8 66.7-76.2 89.8-76.2 235.5 0 325.3L447 792.1c22.1 26.1 51.3 41 81.6 44.7z" fill="#BC1D1D" p-id="1280"></path><path d="M666.6 189c-29.2 2.6-58 13-84 31.2-16.2 11.3-35.7 14.8-53.9 10.6 8.3-1.9 16.3-5.5 23.7-10.6 34.9-24.4 74.9-34.8 114.2-31.2z" fill="#960000" p-id="1281"></path><path d="M789.4 581L610.3 792.1c-22.1 26.1-51.4 41-81.7 44.7-30.3-3.7-59.5-18.6-81.7-44.7L267.9 581c-76.2-89.8-76.2-235.5 0-325.3 34.2-40.4 78-62.6 122.8-66.7 29.2 2.6 58 13 84 31.2 16.2 11.3 35.7 14.8 53.9 10.6 18.2 4.2 37.7 0.7 53.9-10.6 26-18.1 54.8-28.5 84-31.2 44.8 4.1 88.5 26.3 122.8 66.7 76.2 89.8 76.2 235.4 0.1 325.3z" fill="#AA0909" p-id="1282"></path><path d="M789.4 581L610.3 792.1c-29.5 34.7-71.6 49.6-111.9 44.7 30.3-3.7 59.5-18.6 81.7-44.7l179-211.1c76.2-89.8 76.2-235.5 0-325.3-34.2-40.4-78-62.6-122.8-66.7 54.8-5 111.1 17.2 153 66.7 76.2 89.8 76.2 235.4 0.1 325.3z" fill="#960000" p-id="1283"></path><path d="M358.4 818.2c-8.5 0-16.3 2.8-22.6 7.6-6.3-4.8-14.1-7.6-22.6-7.6-20.7 0-37.4 16.8-37.4 37.4s16.8 37.4 37.4 37.4c8.5 0 16.3 0.2 22.6-4.6 6.3 4.8 14.1 4.6 22.6 4.6 20.7 0 37.4-16.8 37.4-37.4s-16.7-37.4-37.4-37.4z" fill="#C12323" p-id="1284"></path><path d="M396.1 818.2c-8.5 0-16.3 2.8-22.6 7.6-6.3-4.8-14.1-7.6-22.6-7.6-20.7 0-37.4 16.8-37.4 37.4s16.8 37.4 37.4 37.4c8.5 0 16.3 0.2 22.6-4.6 6.3 4.8 14.1 4.6 22.6 4.6 20.7 0 37.4-16.8 37.4-37.4s-16.7-37.4-37.4-37.4z" fill="#AA0909" p-id="1285"></path><path d="M384.2 359.7c-14.5 0-27.9-4.3-39.1-11.8-0.6 2.7-0.9 5.6-0.9 8.5 0 22.1 17.9 40 40 40s40-17.9 40-40c0-2.9-0.3-5.8-0.9-8.5-11.2 7.5-24.7 11.8-39.1 11.8z" fill="#BC4242" p-id="1286"></path><path d="M384.2 383.8m-12 0a12 12 0 1 0 24 0 12 12 0 1 0-24 0Z" p-id="1287"></path><path d="M352.2 323.9c1 0 1.9-0.6 2.3-1.4 5.3-11.3 16.8-19.2 30.1-19.2s24.8 7.9 30.1 19.2c0.4 0.9 1.3 1.4 2.3 1.4 1.9 0 3.1-1.9 2.3-3.6a38.31 38.31 0 0 0-34.8-22.1c-15.4 0-28.6 9.1-34.8 22.1-0.7 1.6 0.6 3.6 2.5 3.6z" p-id="1288"></path><path d="M640.4 359.7c-14.5 0-27.9-4.3-39.1-11.8-0.6 2.7-0.9 5.6-0.9 8.5 0 22.1 17.9 40 40 40s40-17.9 40-40c0-2.9-0.3-5.8-0.9-8.5-11.2 7.5-24.7 11.8-39.1 11.8z" fill="#BC4242" p-id="1289"></path><path d="M640.4 383.8m-12 0a12 12 0 1 0 24 0 12 12 0 1 0-24 0Z" p-id="1290"></path><path d="M608.4 323.9c1 0 1.9-0.6 2.3-1.4 5.3-11.3 16.8-19.2 30.1-19.2s24.8 7.9 30.1 19.2c0.4 0.9 1.3 1.4 2.3 1.4 1.9 0 3.1-1.9 2.3-3.6-6.1-13.1-19.4-22.1-34.8-22.1s-28.6 9.1-34.8 22.1c-0.7 1.6 0.6 3.6 2.5 3.6z" p-id="1291"></path><path d="M275.5 462.6a49.8 36 0 1 0 99.6 0 49.8 36 0 1 0-99.6 0Z" fill="#BC4242" p-id="1292"></path><path d="M308.1 448.5m-8 0a8 8 0 1 0 16 0 8 8 0 1 0-16 0Z" p-id="1293"></path><path d="M336.6 448.5m-8 0a8 8 0 1 0 16 0 8 8 0 1 0-16 0Z" p-id="1294"></path><path d="M312.1 472.6m-8 0a8 8 0 1 0 16 0 8 8 0 1 0-16 0Z" p-id="1295"></path><path d="M649.3 462.6a49.8 36 0 1 0 99.6 0 49.8 36 0 1 0-99.6 0Z" fill="#BC4242" p-id="1296"></path><path d="M716.3 448.5m-8 0a8 8 0 1 0 16 0 8 8 0 1 0-16 0Z" p-id="1297"></path><path d="M687.8 448.5m-8 0a8 8 0 1 0 16 0 8 8 0 1 0-16 0Z" p-id="1298"></path><path d="M712.3 472.6m-8 0a8 8 0 1 0 16 0 8 8 0 1 0-16 0Z" p-id="1299"></path><path d="M503.9 597.3l-5.2-19.3-97 26-67.2 250.8 14.2 24.5 69.4-259z" fill="#AA0909" p-id="1300"></path><path d="M520.3 595.1c1.7 0 3.1-1.3 3.1-3s-1.3-3-3-3h-0.1c-8.3 0-14.9-6.7-14.9-15s6.7-15 15-15c1.7 0 3-1.3 3-3s-1.3-3-3-3c-11.6 0-21 9.4-21 21 0 7.7 4.1 14.3 10.2 18-6.1 3.7-10.2 10.3-10.2 18 0 11.6 9.4 21 21 21 1.7 0 3-1.3 3-3s-1.3-3-3-3c-8.3 0-15-6.7-15-15-0.1-8.3 6.6-15 14.9-15z" p-id="1301"></path><path d="M520.8 232.1c-15.8 1.7-32.1-2.2-46-11.9-4.9-3.5-10-6.6-15.1-9.5-9.9-28.4-34.4-49.3-64-52.7 7-1.8 14.4-2.8 22-2.8 2.4 0 4.9 0.1 7.3 0.3-5 0.4-10 1.3-14.7 2.5 29.6 3.4 54.1 24.4 64 52.7 5.1 2.9 10.2 6 15.1 9.5 9.5 6.7 20.3 10.7 31.4 11.9z" fill="#2F8242" p-id="1302"></path><path d="M613.8 155.5c-2.4-0.2-4.8-0.3-7.2-0.3-22.8 0-43.6 8.7-59.6 23.2-3.6 3.3-7 6.8-10.1 10.7-4.2-11.7-10-22.5-17.2-32.2-2.3-3.1-4.7-6-7.3-8.8-8.2 9-15.1 19.4-20.3 30.7-1.6 3.5-3.1 7.1-4.4 10.8-15.4-19.2-37.7-32-62.9-34-5 0.4-10 1.3-14.7 2.5 29.6 3.4 54.1 24.4 64 52.7 5.1 2.9 10.2 6 15.1 9.5 9.7 6.7 20.5 10.7 31.5 11.9 11-1.2 21.9-5.2 31.5-11.9 3.8-2.7 7.7-5.2 11.7-7.5 9.4-29.4 34.4-51.3 64.6-54.7-4.7-1.4-9.6-2.2-14.7-2.6z" fill="#19662D" p-id="1303"></path><path d="M628.6 158c-30.3 3.5-55.2 25.3-64.6 54.7-4 2.3-7.9 4.8-11.7 7.5-13.9 9.7-30.2 13.7-46 11.9 11-1.2 21.9-5.2 31.5-11.9 3.8-2.7 7.7-5.2 11.7-7.5 9.4-29.4 34.4-51.3 64.6-54.7-4.8-1.2-9.7-2.1-14.8-2.5 2.4-0.2 4.8-0.3 7.3-0.3 7.6 0 15 0.9 22 2.8z" fill="#0C4F1C" p-id="1304"></path><path d="M294.3 287c-1.2-2.6-4.2-4.1-7-3.3-2.7 0.7-4.5 3.2-4.5 6 0 0.8 0.2 1.5 0.6 2.2 1.4 2.5 5.9 10.3 8.6 9.6 2.7-0.7 2.7-9.9 2.7-12.7 0-0.6-0.1-1.2-0.4-1.8zM209.5 457.1c-1.2-2.6-4.2-4.1-7-3.3-2.7 0.7-4.5 3.2-4.5 6 0 0.8 0.2 1.5 0.6 2.2 1.4 2.5 5.9 10.3 8.6 9.6 2.7-0.7 2.7-9.9 2.7-12.7 0-0.6-0.1-1.2-0.4-1.8zM461.9 471.6c2.7-0.7 2.7-9.9 2.7-12.7 0-0.6-0.1-1.2-0.4-1.8-1.2-2.6-4.2-4.1-7-3.3-2.7 0.7-4.5 3.2-4.5 6 0 0.8 0.2 1.5 0.6 2.2 1.4 2.5 5.9 10.3 8.6 9.6zM355.2 575.8c-1.2-2.6-4.2-4.1-7-3.3-2.7 0.7-4.5 3.2-4.5 6 0 0.8 0.2 1.5 0.6 2.2 1.4 2.5 5.9 10.3 8.6 9.6 2.7-0.7 2.7-9.9 2.7-12.7-0.1-0.6-0.2-1.3-0.4-1.8zM472.5 709.8c-1.2-2.6-4.2-4.1-7-3.3-2.7 0.7-4.5 3.2-4.5 6 0 0.8 0.2 1.5 0.6 2.2 1.4 2.5 5.9 10.3 8.6 9.6 2.7-0.7 2.7-9.9 2.7-12.7 0-0.6-0.1-1.2-0.4-1.8zM591 757.2c-1.2-2.6-4.2-4.1-7-3.3-2.7 0.7-4.5 3.2-4.5 6 0 0.8 0.2 1.5 0.6 2.2 1.4 2.5 5.9 10.3 8.6 9.6 2.7-0.7 2.7-9.9 2.7-12.7 0-0.6-0.1-1.2-0.4-1.8zM640 610.9c-1.2-2.6-4.2-4.1-7-3.3-2.7 0.7-4.5 3.2-4.5 6 0 0.8 0.2 1.5 0.6 2.2 1.4 2.5 5.9 10.3 8.6 9.6 2.7-0.7 2.7-9.9 2.7-12.7 0-0.6-0.1-1.3-0.4-1.8zM768.9 521.2c-1.2-2.6-4.2-4.1-7-3.3-2.7 0.7-4.5 3.2-4.5 6 0 0.8 0.2 1.5 0.6 2.2 1.4 2.5 5.9 10.3 8.6 9.6 2.7-0.7 2.7-9.9 2.7-12.7-0.1-0.6-0.2-1.3-0.4-1.8zM620.4 493.2c-1.2-2.6-4.2-4.1-7-3.3-2.7 0.7-4.5 3.2-4.5 6 0 0.8 0.2 1.5 0.6 2.2 1.4 2.5 5.9 10.3 8.6 9.6 2.7-0.7 2.7-9.9 2.7-12.7 0-0.6-0.1-1.3-0.4-1.8zM829.2 383.1c0-0.6-0.1-1.2-0.4-1.8-1.2-2.6-4.2-4.1-7-3.3-2.7 0.7-4.5 3.2-4.5 6 0 0.8 0.2 1.5 0.6 2.2 1.4 2.5 5.9 10.3 8.6 9.6 2.8-0.7 2.8-9.9 2.7-12.7zM738.2 296.5c-1.2-2.6-4.2-4.1-7-3.3-2.7 0.7-4.5 3.2-4.5 6 0 0.8 0.2 1.5 0.6 2.2 1.4 2.5 5.9 10.3 8.6 9.6 2.7-0.7 2.7-9.9 2.7-12.7 0-0.6-0.2-1.3-0.4-1.8zM543.4 253.2c-1.2-2.6-4.2-4.1-7-3.3-2.7 0.7-4.5 3.2-4.5 6 0 0.8 0.2 1.5 0.6 2.2 1.4 2.5 5.9 10.3 8.6 9.6 2.7-0.7 2.7-9.9 2.7-12.7-0.1-0.6-0.2-1.2-0.4-1.8z" fill="#E59C3C" p-id="1305"></path><path d="M237.8 314.9m-3 0a3 3 0 1 0 6 0 3 3 0 1 0-6 0Z" fill="#FFFFFF" p-id="1306"></path></svg>