<?xml version="1.0" standalone="no"?><!DOCTYPE svg PUBLIC "-//W3C//DTD SVG 1.1//EN" "http://www.w3.org/Graphics/SVG/1.1/DTD/svg11.dtd"><svg t="1568864318286" class="icon" viewBox="0 0 1024 1024" version="1.1" xmlns="http://www.w3.org/2000/svg" p-id="5003" xmlns:xlink="http://www.w3.org/1999/xlink" width="200" height="200"><defs><style type="text/css"></style></defs><path d="M512.0025 60.23375c249.13125 0 451.7625 202.69125 451.7625 451.76875 0 249.0725-202.63 451.7625-451.7625 451.7625-249.13625 0-451.7675-202.63125-451.7675-451.7625C60.235 262.925 262.86625 60.23375 512.0025 60.23375M512.0025 0C229.2575 0 0 229.2575 0 512.005 0 794.68375 229.2575 1024 512.0025 1024c282.68125 0 511.9975-229.19375 511.9975-511.99625C1023.99875 229.19375 794.6825 0 512.0025 0L512.0025 0 512.0025 0z" fill="#1296db" p-id="5004"></path><path d="M795.125 529.5 228.87625 529.5c-9.665 0-17.5-7.835-17.5-17.5 0-9.665 7.835-17.5 17.5-17.5L795.125 494.5c9.665 0 17.5 7.835 17.5 17.5C812.625 521.665 804.79 529.5 795.125 529.5z" fill="#1296db" p-id="5005"></path><path d="M512 812.625c-9.665 0-17.5-7.835-17.5-17.5l0-566.25c0-9.665 7.835-17.5 17.5-17.5s17.5 7.835 17.5 17.5l0 566.25C529.5 804.79 521.665 812.625 512 812.625z" fill="#1296db" p-id="5006"></path></svg>