<?xml version="1.0" standalone="no"?><!DOCTYPE svg PUBLIC "-//W3C//DTD SVG 1.1//EN" "http://www.w3.org/Graphics/SVG/1.1/DTD/svg11.dtd"><svg t="1568737816996" class="icon" viewBox="0 0 1024 1024" version="1.1" xmlns="http://www.w3.org/2000/svg" p-id="7474" xmlns:xlink="http://www.w3.org/1999/xlink" width="200" height="200"><defs><style type="text/css"></style></defs><path d="M967.111111 512c0-251.363556-203.747556-455.111111-455.111111-455.111111s-455.111111 203.747556-455.111111 455.111111S260.636444 967.111111 512 967.111111 967.111111 763.363556 967.111111 512z m-56.88888899 0c0 219.93244401-178.289778 398.22222201-398.22222201 398.22222201s-398.22222201-178.289778-398.22222201-398.22222201 178.289778-398.22222201 398.22222201-398.22222201S910.222222 292.067556 910.22222201 512z m-475.22133301 179.000889a28.444444 28.444444 0 0 0 40.22044401 40.220444l199.11111099-199.111111a28.444444 28.444444 0 0 0 0-40.220444l-199.11111099-199.111111a28.444444 28.444444 0 0 0-40.22044401 40.220444L614.001778 512l-179.000889 179.000889z" p-id="7475"></path></svg>