<?xml version="1.0" standalone="no"?><!DOCTYPE svg PUBLIC "-//W3C//DTD SVG 1.1//EN" "http://www.w3.org/Graphics/SVG/1.1/DTD/svg11.dtd"><svg t="1568737906091" class="icon" viewBox="0 0 1024 1024" version="1.1" xmlns="http://www.w3.org/2000/svg" p-id="8323" xmlns:xlink="http://www.w3.org/1999/xlink" width="200" height="200"><defs><style type="text/css"></style></defs><path d="M931.936 61.36a37.296 37.296 0 1 0 74.608 0.048v-0.048a37.296 37.296 0 1 0-74.624-0.048v0.048zM16.432 312.832a24.992 24.992 0 1 0 25.008-25.024 24.976 24.976 0 0 0-25.008 24.992v0.032zM207.552 115.888h37.184m0.016 12.08h-37.184a12.128 12.128 0 0 1-12.08-12.08c0-6.64 5.44-12.08 12.08-12.08h37.184c6.64 0 12.08 5.44 12.08 12.08a12.128 12.128 0 0 1-12.08 12.08M307.296 115.888h37.184m0 12.08h-37.184a12.128 12.128 0 0 1-12.08-12.08c0-6.64 5.44-12.08 12.08-12.08h37.184c6.64 0 12.08 5.44 12.08 12.08s-5.44 12.08-12.08 12.08" fill="#143F04" p-id="8324"></path><path d="M227.6 164.336l26.32-26.336m-26.32 38.4a12.048 12.048 0 0 1-8.576-20.544l26.32-26.336a12.048 12.048 0 0 1 17.024 17.04l-26.32 26.336a11.84 11.84 0 0 1-8.448 3.504M298.112 93.776l26.32-26.336m-26.32 38.416a12.048 12.048 0 0 1-8.576-20.544l26.32-26.336a12.048 12.048 0 0 1 17.024 17.04L306.56 102.352a11.84 11.84 0 0 1-8.448 3.504M324.432 164.336l-26.32-26.336m26.32 38.4a12.336 12.336 0 0 1-8.576-3.504L289.536 146.56a12.048 12.048 0 0 1 17.024-17.04l26.32 26.336a12.048 12.048 0 0 1-8.448 20.544M253.92 93.776l-26.32-26.336m26.32 38.416a12.336 12.336 0 0 1-8.576-3.504l-26.32-26.336a12.048 12.048 0 0 1 17.024-17.04l26.32 26.336a12.048 12.048 0 0 1-8.448 20.544M41.424 937.68c14.496 0 26.192 11.728 26.192 26.208a26.192 26.192 0 1 1-52.384 0 26.24 26.24 0 0 1 26.192-26.208M905.952 1005.28h-0.24a18.112 18.112 0 0 1-17.872-18.368l1.216-83.952a18.128 18.128 0 0 1 18.112-17.888h0.24a18.096 18.096 0 0 1 17.872 18.368l-1.2 83.952a18.144 18.144 0 0 1-18.128 17.888" fill="#143F04" p-id="8325"></path><path d="M275.856 184.384l0.016-37.232m-8.56 45.76a12.32 12.32 0 0 1-3.584-8.544l0.016-37.232a12.048 12.048 0 0 1 24.08-0.016l-0.016 37.232a12.032 12.032 0 0 1-20.496 8.56M275.888 84.64l0.016-37.232m-8.56 45.76a12.368 12.368 0 0 1-3.6-8.528l0.016-37.232a12.048 12.048 0 0 1 24.08-0.016v37.232a12.032 12.032 0 0 1-20.496 8.544M846.448 944.576v-0.24a18.112 18.112 0 0 1 18.368-17.872l83.952 1.216a18.128 18.128 0 0 1 17.888 18.112v0.24a18.096 18.096 0 0 1-18.368 17.872l-83.952-1.2a18.144 18.144 0 0 1-17.888-18.128" fill="#143F04" p-id="8326"></path><path d="M863.008 269.024s-406.96-46.16-532.528 73.232c-125.584 119.392-25.44 297.68-25.44 297.68s179.632-206.944 327.472-206.944 15.904 39.808 15.904 39.808-225.744 97.088-282.976 224.448c0 0 155.392 84.752 278.192 0 122.784-84.768 201.888-284.96 219.376-428.224" fill="#B2FF99" p-id="8327"></path><path d="M236.48 867.376a24.48 24.48 0 0 1-24.448-24.496c0-83.888 24.496-120.784 72.832-198.256a204.592 204.592 0 0 1-27.904-57.12c-17.952-58.624-13.648-117.712-4.528-150.48 13.744-49.36 37.072-87.552 71.264-116.768 31.536-26.928 72.624-46.208 125.632-58.912 89.888-21.52 209.616-23.184 368.944-23.184h42.272c7.088 0 13.808 3.072 18.448 8.432l0.112 0.112 0.224 0.272c4.64 5.552 6.608 12.8 5.376 19.936-21.328 123.424-54.64 224.896-98.944 301.584-38.16 65.984-84.928 114.64-139.008 144.592-42.72 23.648-89.504 35.648-139.072 35.648-9.28 0-18.512-0.4-27.424-1.2a334 334 0 0 1-96.448-23.152 216.128 216.128 0 0 1-28.4-14.256 24.544 24.544 0 0 1-8.512-33.552 24.576 24.576 0 0 1 21.024-11.952c4.4 0 8.704 1.184 12.48 3.44 7.152 4.256 14.528 7.936 21.888 10.976 19.008 7.792 57.888 20.88 104.928 20.88h0.032c41.328 0 80.304-9.984 115.792-29.68 99.664-55.232 169.696-184.08 208.24-383.056h-10.672c-321.216 0-477.552 6.928-521.04 163.072-5.92 21.248-11.68 71.104 4.192 122.96a152 152 0 0 0 11.52 27.552 593.888 593.888 0 0 1 51.776-59.264c41.12-41.232 87.92-76.176 135.28-101.024 47.04-24.704 91.424-37.76 128.336-37.76a24.496 24.496 0 0 1 0 48.96c-28.608 0-66.144 11.424-105.712 32.128-42.912 22.512-85.584 54.4-123.392 92.256-52.528 52.576-140.672 118.112-140.672 266.784a24.464 24.464 0 0 1-24.416 24.528" fill="#143F04" p-id="8328"></path></svg>